<svg width="16" height="32" viewBox="0 0 16 32" fill="none" xmlns="http://www.w3.org/2000/svg">
<g clip-path="url(#clip0_6_41)">
<path fill-rule="evenodd" clip-rule="evenodd" d="M8.00024 15.3333C12.0502 15.3333 15.3333 12.0502 15.3333 8.00024C15.3333 3.95028 12.0502 0.667139 8.00024 0.667139C3.95028 0.667139 0.667141 3.95028 0.66714 8.00024C0.66714 12.0502 3.95028 15.3333 8.00024 15.3333ZM7.00025 11C7.00025 11.5523 7.44797 12 8.00025 12C8.55254 12 9.00025 11.5523 9.00025 11L9.00025 8.00011C9.00026 7.44783 8.55254 7.00011 8.00026 7.00011C7.44797 7.00011 7.00026 7.44783 7.00025 8.00011L7.00025 11ZM7.00026 5.00036C7.00026 5.55264 7.44797 6.00036 8.00026 6.00036C8.55254 6.00036 9.00026 5.55264 9.00026 5.00036L9.00026 4.66702C9.00026 4.11474 8.55254 3.66702 8.00026 3.66702C7.44797 3.66702 7.00026 4.11474 7.00026 4.66702L7.00026 5.00036Z" fill="#BABCBF"/>
</g>
<g clip-path="url(#clip1_6_41)">
<path fill-rule="evenodd" clip-rule="evenodd" d="M8.00024 31.3333C12.0502 31.3333 15.3333 28.0502 15.3333 24.0002C15.3333 19.9503 12.0502 16.6671 8.00024 16.6671C3.95028 16.6671 0.667141 19.9503 0.66714 24.0002C0.66714 28.0502 3.95028 31.3333 8.00024 31.3333ZM7.00025 27C7.00025 27.5523 7.44797 28 8.00025 28C8.55254 28 9.00025 27.5523 9.00025 27L9.00025 24.0001C9.00026 23.4478 8.55254 23.0001 8.00026 23.0001C7.44797 23.0001 7.00026 23.4478 7.00025 24.0001L7.00025 27ZM7.00026 21.0004C7.00026 21.5526 7.44797 22.0004 8.00026 22.0004C8.55254 22.0004 9.00026 21.5526 9.00026 21.0004L9.00026 20.667C9.00026 20.1147 8.55254 19.667 8.00026 19.667C7.44797 19.667 7.00026 20.1147 7.00026 20.667L7.00026 21.0004Z" fill="white"/>
</g>
<defs>
<clipPath id="clip0_6_41">
<rect width="16" height="16" fill="white" transform="translate(16 16) rotate(-180)"/>
</clipPath>
<clipPath id="clip1_6_41">
<rect width="16" height="16" fill="white" transform="translate(16 32) rotate(-180)"/>
</clipPath>
</defs>
</svg>
