<svg width="16" height="17" viewBox="0 0 16 17" fill="none" xmlns="http://www.w3.org/2000/svg">
<rect y="0.5" width="16" height="16" rx="8" fill="#FDDE3B"/>
<path d="M9.32662 8.86929C9.6944 8.99839 9.98044 9.20816 10.1848 9.49862C10.3949 9.78262 10.5 10.1183 10.5 10.5055C10.5 10.9122 10.3803 11.2672 10.141 11.5705C9.90163 11.8675 9.58056 12.0966 9.17776 12.258C8.78079 12.4193 8.34588 12.5 7.87303 12.5C7.46439 12.5 7.05283 12.4387 6.63835 12.316C6.22971 12.187 5.85026 11.9965 5.5 11.7448L5.86778 10.825C6.13631 11.0251 6.43403 11.18 6.76095 11.2898C7.08786 11.393 7.41185 11.4447 7.73292 11.4447C8.1941 11.4447 8.57647 11.3446 8.88004 11.1445C9.18943 10.9444 9.34413 10.6701 9.34413 10.3216C9.34413 10.0247 9.23322 9.79876 9.01138 9.64385C8.78955 9.48894 8.48307 9.41148 8.09194 9.41148H6.66462V8.42393H8.00438C8.34297 8.42393 8.60858 8.34647 8.80123 8.19156C8.99387 8.03665 9.09019 7.82688 9.09019 7.56224C9.09019 7.24597 8.95884 7.00069 8.69615 6.82642C8.43929 6.65214 8.10946 6.56501 7.70666 6.56501C7.43228 6.56501 7.14915 6.61019 6.85727 6.70055C6.56538 6.78446 6.29101 6.91033 6.03415 7.07815L5.67513 6.06155C5.99037 5.87437 6.32312 5.73559 6.67338 5.64523C7.02948 5.54841 7.38266 5.5 7.73292 5.5C8.18827 5.5 8.60566 5.57746 8.98511 5.73237C9.3704 5.88728 9.67688 6.10996 9.90455 6.40042C10.1322 6.68442 10.2461 7.02006 10.2461 7.40733C10.2461 7.74297 10.1643 8.03665 10.0009 8.28838C9.83742 8.54011 9.61267 8.73375 9.32662 8.86929Z" fill="black"/>
</svg>
