<svg width="100" height="34" viewBox="0 0 100 34" fill="none" xmlns="http://www.w3.org/2000/svg">
<path fill-rule="evenodd" clip-rule="evenodd" d="M16.952 0.94858C16.6982 1.45856 15.8324 2.66653 15.0283 3.63298L13.566 5.39018L13.6888 6.92245C13.8005 8.31824 13.778 8.4432 13.4356 8.32527C13.229 8.25401 12.5002 8.05623 11.8162 7.88578C10.8024 7.63274 10.5109 7.62161 10.2379 7.82467C9.73417 8.19953 9.83365 8.55176 10.5022 8.76086C11.0096 8.9194 11.0954 9.04923 11.0632 9.60958C11.0423 9.97352 11.0177 10.4152 11.0085 10.5913C10.9974 10.8035 10.7168 10.9546 10.1754 11.0399C9.72655 11.1108 7.25333 11.5321 4.67954 11.9761L0 12.7833L1.61746 13.4412L3.23493 14.0992L6.40585 13.3128C8.14979 12.8803 10.5936 12.2606 11.8362 11.9357C13.079 11.6108 14.2546 11.3494 14.4485 11.3547C14.8038 11.3642 6.33271 13.6921 4.40655 14.1142C3.43063 14.328 3.37251 14.3774 3.37251 14.9907C3.37251 15.348 3.44587 15.6403 3.53578 15.6401C3.62569 15.6397 6.13504 14.8929 9.11265 13.9805C12.09 13.0679 14.6125 12.3213 14.7183 12.3213C14.8238 12.3213 14.9103 12.4795 14.9103 12.6728C14.9103 13.1732 15.3398 13.4928 16.012 13.4928C16.5482 13.4928 16.6013 13.5689 16.7284 14.5178C16.804 15.0815 16.8839 16.9047 16.9061 18.5691L16.9466 21.5954L17.0977 18.6667C17.1808 17.056 17.2614 15.1012 17.2768 14.3226C17.3025 13.0236 17.3426 12.9071 17.7612 12.9071C18.012 12.9071 18.4959 12.7594 18.8364 12.5792C19.5258 12.2137 19.2715 12.1505 22.9649 13.607C23.8629 13.961 25.7242 14.6855 27.1011 15.217C28.478 15.7482 30.8781 16.6858 32.4346 17.3004C33.9911 17.9151 35.3944 18.4637 35.5526 18.5199C35.7649 18.5949 35.8221 18.4475 35.7703 17.9609L35.7 17.3L27.4277 14.3161C18.2173 10.9937 18.1922 10.9843 18.5146 10.9669C18.7073 10.9566 26.4097 13.6396 33.8992 16.3258C34.9442 16.7004 35.899 17.0072 36.0211 17.0072C36.1432 17.0072 36.7517 16.6796 37.3734 16.2789L38.5035 15.5508L34.1629 14.3073C31.7756 13.6236 28.4018 12.6486 26.6657 12.1407L23.5092 11.2174L23.3868 10.4101C23.2714 9.64902 23.2993 9.59592 23.874 9.48268C24.2095 9.41668 24.5465 9.27162 24.6231 9.16053C24.8388 8.84735 24.2289 8.59979 23.554 8.72708L22.946 8.84169L23.4452 8.37447C24.0488 7.80963 24.5308 7.27974 25.7196 5.87379C26.4972 4.95439 26.6879 4.52544 27.0802 2.81452C27.3312 1.71999 27.5365 0.643608 27.5365 0.422788C27.5365 -0.00342891 26.8921 -0.156304 26.8714 0.265031C26.8649 0.399359 26.6431 1.43161 26.3784 2.55914C25.9186 4.51861 25.8374 4.67851 24.5419 6.17701C22.986 7.97657 21.3261 9.17653 20.0441 9.42801C19.5554 9.52387 18.984 9.64902 18.7743 9.70603C18.1574 9.87355 18.3146 9.51723 19.8232 7.32855C20.6095 6.18755 21.2044 5.21036 21.145 5.15725C21.0174 5.04284 18.1273 6.43434 17.9334 6.70358C17.86 6.8053 17.734 7.78152 17.6536 8.87274C17.4477 11.6637 16.9366 12.9071 15.995 12.9071C15.657 12.9071 15.6219 12.5412 15.6078 8.87586L15.5921 4.84466L16.8839 2.53337C17.5944 1.26233 18.1757 0.176976 18.1757 0.121527C18.1757 0.0662732 18.0043 0.0211735 17.7947 0.0211735C17.5502 0.0213687 17.2483 0.353869 16.952 0.94858ZM14.8881 7.89105C14.8626 10.6022 14.5345 10.0948 14.4701 7.24499C14.4246 5.22617 14.4229 5.24062 14.6926 5.39018C14.8206 5.46105 14.9011 6.49233 14.8881 7.89105ZM19.0565 7.2282C18.7624 7.72099 18.35 7.7741 18.5475 7.2938C18.6925 6.94139 19.0828 6.62685 19.221 6.75083C19.2641 6.78948 19.1901 7.00425 19.0565 7.2282ZM13.3864 9.11484L13.9306 9.40887L13.3864 9.28119C13.0871 9.21109 12.7492 9.07559 12.6354 8.98031C12.303 8.70151 12.7799 8.78702 13.3864 9.11484ZM13.5497 9.91944C13.6995 9.97488 13.8218 10.1014 13.8218 10.2006C13.8218 10.4093 13.5882 10.4874 12.4612 10.6553L11.6449 10.7771V9.98465V9.19215L12.4612 9.50532C12.9103 9.67772 13.4001 9.86399 13.5497 9.91944ZM22.9649 10.3689C22.9649 11.0304 22.6972 11.0848 21.443 10.6789L20.6831 10.4327L21.6607 10.1235C22.9795 9.70603 22.9649 9.7033 22.9649 10.3689ZM19.373 10.1736C19.1335 10.266 18.7907 10.3414 18.6111 10.3414C18.4053 10.3414 18.4454 10.2795 18.7199 10.1736C18.9594 10.0813 19.3022 10.0059 19.4818 10.0059C19.6876 10.0059 19.6475 10.0678 19.373 10.1736ZM18.3934 11.9308C18.3934 12.0382 18.2954 12.1261 18.1757 12.1261C18.0559 12.1261 17.958 12.0382 17.958 11.9308C17.958 11.8235 18.0559 11.7356 18.1757 11.7356C18.2954 11.7356 18.3934 11.8235 18.3934 11.9308ZM0.107105 13.8427C0.107105 14.3179 0.271464 14.4555 1.3915 14.9165C2.09791 15.2072 2.73467 15.4452 2.80651 15.4452C2.87835 15.4452 2.93712 15.2267 2.93712 14.9598C2.93712 14.5629 2.70071 14.3675 1.63727 13.886C0.92215 13.5623 0.285396 13.2975 0.222265 13.2975C0.158916 13.2975 0.107105 13.5428 0.107105 13.8427ZM11.2878 15.6405C11.2878 16.6606 11.3246 17.078 11.3695 16.5679C11.4143 16.0577 11.4143 15.2232 11.3695 14.7131C11.3246 14.2029 11.2878 14.6203 11.2878 15.6405ZM23.0154 14.6642C23.0154 15.0401 23.0603 15.1939 23.1149 15.0059C23.1698 14.8179 23.1698 14.5106 23.1149 14.3226C23.0603 14.1346 23.0154 14.2884 23.0154 14.6642ZM37.2783 16.7389C36.4519 17.2952 36.2442 17.5513 36.2442 18.0136C36.2442 18.6601 36.2893 18.6503 37.6592 17.7116C38.6889 17.006 38.8487 16.8268 38.8533 16.3726C38.8581 15.864 38.4299 15.9636 37.2783 16.7389ZM2.10074 21.3398C2.12665 25.189 2.17541 26.036 2.29558 24.7193C2.54244 22.0099 2.53482 16.4628 2.28404 16.3238C2.1408 16.2444 2.0781 17.9574 2.10074 21.3398ZM46.0405 26.086V33.9934H47.2922L48.5439 33.9936L48.5176 28.1849C48.5032 24.9903 48.5372 21.915 48.5931 21.3513L48.6948 20.3263H50.3066H51.9182V23.255V26.1836H50.723H49.5279L49.5995 27.2086L49.6711 28.2337L51.7199 28.2911C54.6576 28.3731 54.5305 28.6058 54.5305 23.1468C54.5305 18.8624 54.522 18.7812 54.0466 18.4826C53.6541 18.236 52.8536 18.1786 49.8015 18.1786H46.0405V26.086ZM57.386 22.6212C56.427 27.0845 55.2861 32.4568 55.0847 33.4564C54.977 33.9924 54.979 33.9934 56.2616 33.9934H57.5466L57.8114 32.5214L58.0761 31.0493L59.7321 31.1059L61.3878 31.1623L61.5698 32.1385C61.9471 34.1615 61.7952 33.9934 63.2465 33.9934C64.4898 33.9934 64.5472 33.9723 64.4382 33.5541C64.2904 32.9869 62.057 22.4488 61.4381 19.3989L61.1906 18.1786L59.7654 18.1794L58.3401 18.1804L57.386 22.6212ZM65.8506 26.086V33.9934H67.1567H68.4629V27.1598V20.3263H70.0956H71.7283V23.255V26.1836H70.6398H69.5514V27.2575V28.3313H71.5106C74.463 28.3313 74.3406 28.5545 74.3406 23.1685C74.3406 18.8616 74.3323 18.7813 73.8567 18.4826C73.4642 18.236 72.6637 18.1786 69.6117 18.1786H65.8506V26.086ZM78.1516 18.4227C78.1 18.557 77.7155 20.2482 77.2969 22.1811C76.8785 24.114 76.1401 27.5197 75.6561 29.7493C75.172 31.979 74.776 33.846 74.776 33.8983C74.776 33.9506 75.3559 33.9934 76.065 33.9934C77.5059 33.9934 77.4071 34.1125 77.7327 31.9843L77.8757 31.0491L79.537 31.1057L81.198 31.1623L81.4466 32.4314C81.5833 33.1294 81.7058 33.7663 81.7187 33.8469C81.7315 33.9276 82.3319 33.9934 83.0525 33.9934C84.3001 33.9934 84.3574 33.9723 84.2483 33.5541C84.0672 32.8586 81.6854 21.5661 81.2626 19.3989L81.0247 18.1786H79.6351C78.7184 18.1786 78.2136 18.2618 78.1516 18.4227ZM34.9533 20.5704C34.9636 21.6518 35.0302 22.0528 35.1558 21.7906C35.4203 21.2385 35.4203 18.9596 35.1558 18.9596C35.0269 18.9596 34.9444 19.6176 34.9533 20.5704ZM60.4124 25.651L60.9875 28.8194L59.8024 28.8786C59.1506 28.9112 58.5776 28.9024 58.5293 28.8588C58.4808 28.8155 58.7085 27.3209 59.035 25.5377C59.3618 23.7546 59.6757 22.3377 59.7329 22.3891C59.7902 22.4404 60.0958 23.9082 60.4124 25.651ZM80.1367 25.1566C80.4136 26.6342 80.6431 28.0849 80.6468 28.3801C80.6535 28.9028 80.6215 28.917 79.4309 28.917C78.2132 28.917 78.2088 28.9149 78.3285 28.3801C78.3945 28.0849 78.6684 26.5923 78.9368 25.0633C79.2054 23.5344 79.4721 22.3254 79.5293 22.3768C79.5866 22.4281 79.86 23.679 80.1367 25.1566Z" fill="black"/>
<path fill-rule="evenodd" clip-rule="evenodd" d="M46.3529 7.87066L46.4138 15.7413L47.1214 15.8024L47.8289 15.8637L47.8426 10.6285C47.8513 7.37923 47.9296 5.55643 48.0494 5.82333C48.2172 6.19722 48.8916 8.41109 50.1932 12.8611C50.3894 13.5319 50.6417 14.0853 50.7536 14.0909C50.8655 14.0966 51.5272 12.1926 52.2245 9.8598C52.9216 7.52703 53.5403 5.57518 53.5993 5.52227C53.6583 5.46916 53.7066 7.76893 53.7066 10.6324V15.8389H54.3364C54.6921 15.8389 55.0201 15.713 55.09 15.5494C55.1582 15.3903 55.1932 11.8538 55.1677 7.69084L55.1216 0.121831H54.3723H53.6232L52.2115 5.1925C51.4352 7.98155 50.7499 10.1341 50.6889 9.97597C50.628 9.81801 49.9764 7.5362 49.2413 4.9053L47.9046 0.121831L47.0983 0.0609153L46.2917 0L46.3529 7.87066ZM60.1383 0.268263C60.0915 0.402591 59.8497 1.54457 59.6011 2.80643C58.6844 7.45811 58.2657 9.56479 57.6579 12.5858C56.9966 15.8729 57.0064 15.9448 58.0968 15.8055C58.5289 15.7505 58.623 15.5894 58.7619 14.6675C58.8507 14.0769 58.9785 13.308 59.046 12.9591L59.1687 12.3246H60.9003C61.8527 12.3246 62.6322 12.3466 62.6322 12.3734C62.6325 12.4001 62.7794 13.169 62.9586 14.0817C63.1377 14.9945 63.2847 15.7634 63.2849 15.7901C63.2849 15.8169 63.628 15.8389 64.047 15.8389C64.4661 15.8389 64.809 15.7874 64.809 15.7243C64.809 15.6173 64.3363 13.209 62.5058 3.98531C62.0963 1.92237 61.7612 0.187236 61.7612 0.129249C61.7612 -0.0945004 60.2191 0.0374854 60.1383 0.268263ZM66.8677 0.268654C66.81 0.403176 66.7887 3.93962 66.82 8.12721L66.877 15.7413L67.6934 15.8018L68.5098 15.8626V8.52902V1.19567H70.469H72.4282V4.12432V7.05298H71.0132C69.839 7.05298 69.5982 7.10823 69.5982 7.37767C69.5982 7.55612 70.3009 9.53296 71.16 11.7706L72.7217 15.8389H73.5415H74.3616L73.8526 14.521C73.3245 13.1538 71.7118 9.16434 71.4453 8.56611C71.316 8.27598 71.4205 8.22444 72.1389 8.22444C72.6039 8.22444 73.2021 8.08757 73.4682 7.92044C73.9375 7.62582 73.9521 7.51121 73.9521 4.14346C73.9521 1.02679 73.9112 0.637273 73.5539 0.347337C73.2228 0.0786815 72.6355 0.0242088 70.0641 0.0242088C67.7883 0.0242088 66.9445 0.0888342 66.8677 0.268654ZM76.4462 0.268654C76.3885 0.403176 76.3672 3.93962 76.3985 8.12721L76.4556 15.7413L77.2719 15.8018L78.0883 15.8626L78.0887 12.1898L78.0889 8.5173L80.09 12.1781L82.091 15.8389H82.9195C83.3754 15.8389 83.7483 15.7925 83.7483 15.7357C83.7483 15.679 83.44 15.0859 83.0634 14.4178C82.6868 13.7498 81.7168 11.9571 80.9078 10.434L79.4369 7.66506L81.1564 4.38146C82.1021 2.57565 83.0186 0.856337 83.1932 0.561129L83.5104 0.0242088H82.5556C81.756 0.0242088 81.5757 0.095668 81.4473 0.463507C81.3184 0.831736 79.9944 3.42359 78.4795 6.272C78.1246 6.93915 78.1157 6.87355 78.1022 3.48978L78.0883 0.0242088H77.3196C76.8966 0.0242088 76.5037 0.134326 76.4462 0.268654ZM85.2722 7.93157V15.8389H88.211H91.1499V15.2532V14.6675H89.0818H87.0137V11.446V8.22444H88.8641H90.7145V7.63871V7.05298H88.8641H87.0137V4.12432V1.19567H89.0818H91.1499V0.609939V0.0242088H88.211H85.2722V7.93157ZM92.8914 0.609939V1.19567H94.3064H95.7215V8.5173V15.8389H96.4834H97.2453V8.5173V1.19567H98.6227H100L99.904 0.609939L99.8082 0.0242088H96.3499H92.8914V0.609939ZM62.4054 10.909C62.4117 11.0818 61.9691 11.1531 60.8905 11.1531C60.0524 11.1531 59.3666 11.1051 59.3666 11.0463C59.3666 10.9875 59.5538 9.95527 59.7826 8.75218C60.0112 7.54909 60.3195 5.86199 60.4675 5.00292C60.6155 4.14385 60.7919 3.3535 60.8593 3.2467C60.9601 3.087 62.376 10.1031 62.4054 10.909ZM20.0681 21.4131C17.3931 24.834 17.0465 25.2018 16.7278 24.9574C16.5321 24.8074 15.4415 23.9917 14.304 23.1448C13.1666 22.2976 12.1214 21.4715 11.9817 21.3091C11.8417 21.1464 11.68 21.0572 11.6223 21.1109C11.5646 21.1644 10.445 22.7457 9.13447 24.6249C3.18251 33.16 2.7099 34.0069 6.84651 28.725C8.15006 27.0606 9.78733 24.9757 10.485 24.0919L11.7538 22.4852L14.5311 24.828L17.3082 27.1709L19.126 25.0894C20.1258 23.9447 21.0441 22.9105 21.1668 22.7914C21.2896 22.6723 21.8672 22.0256 22.4506 21.3546C23.5867 20.0476 23.453 20.0724 24.6377 20.9502C28.6024 23.8886 30.7606 25.5043 30.8488 25.6003C31.1498 25.9283 34.0811 27.944 34.2567 27.944C34.4773 27.944 36.1851 26.0154 36.0479 25.9213C36.002 25.8897 33.7604 24.4267 31.0665 22.6699C28.3725 20.9131 25.5235 19.0528 24.7355 18.536C23.9477 18.019 23.2465 17.5961 23.1777 17.5961C23.1089 17.5961 21.7095 19.3137 20.0681 21.4131Z" fill="#6000C0"/>
</svg>
